<!-- Simple SVG icon that can be converted to PNG -->
<svg width="128" height="128" viewBox="0 0 128 128" xmlns="http://www.w3.org/2000/svg">
  <!-- Background circle -->
  <circle cx="64" cy="64" r="60" fill="#667eea" stroke="#764ba2" stroke-width="4"/>
  
  <!-- Movie film strip -->
  <rect x="24" y="48" width="80" height="32" rx="4" fill="white"/>
  <rect x="28" y="52" width="8" height="8" fill="#667eea"/>
  <rect x="40" y="52" width="8" height="8" fill="#667eea"/>
  <rect x="52" y="52" width="8" height="8" fill="#667eea"/>
  <rect x="64" y="52" width="8" height="8" fill="#667eea"/>
  <rect x="76" y="52" width="8" height="8" fill="#667eea"/>
  <rect x="88" y="52" width="8" height="8" fill="#667eea"/>
  
  <rect x="28" y="64" width="8" height="8" fill="#667eea"/>
  <rect x="40" y="64" width="8" height="8" fill="#667eea"/>
  <rect x="52" y="64" width="8" height="8" fill="#667eea"/>
  <rect x="64" y="64" width="8" height="8" fill="#667eea"/>
  <rect x="76" y="64" width="8" height="8" fill="#667eea"/>
  <rect x="88" y="64" width="8" height="8" fill="#667eea"/>
  
  <!-- AI brain/chip icon -->
  <circle cx="64" cy="64" r="16" fill="#764ba2" stroke="white" stroke-width="2"/>
  <circle cx="60" cy="60" r="2" fill="white"/>
  <circle cx="68" cy="60" r="2" fill="white"/>
  <path d="M 58 68 Q 64 72 70 68" stroke="white" stroke-width="2" fill="none"/>
</svg>
